[
  {
    "track": 0,
    "data": [
      {
        "note": 43,
        "time": 0,
        "velocity": 50
      },
      {
        "note": 59,
        "time": 384,
        "velocity": 50
      },
      {
        "note": 62,
        "time": 384,
        "velocity": 50
      },
      {
        "note": 66,
        "time": 384,
        "velocity": 50
      },
      {
        "note": 38,
        "time": 1152,
        "velocity": 50
      },
      {
        "note": 57,
        "time": 1536,
        "velocity": 50
      },
      {
        "note": 61,
        "time": 1536,
        "velocity": 50
      },
      {
        "note": 66,
        "time": 1536,
        "velocity": 50
      },
      {
        "note": 43,
        "time": 2304,
        "velocity": 50
      },
      {
        "note": 59,
        "time": 2688,
        "velocity": 50
      },
      {
        "note": 62,
        "time": 2688,
        "velocity": 50
      },
      {
        "note": 66,
        "time": 2688,
        "velocity": 50
      },
      {
        "note": 38,
        "time": 3456,
        "velocity": 50
      },
      {
        "note": 57,
        "time": 3840,
        "velocity": 50
      },
      {
        "note": 61,
        "time": 3840,
        "velocity": 50
      },
      {
        "note": 66,
        "time": 3840,
        "velocity": 50
      },
      {
        "note": 43,
        "time": 4608,
        "velocity": 50
      },
      {
        "note": 78,
        "time": 4992,
        "velocity": 50
      },
      {
        "note": 59,
        "time": 4992,
        "velocity": 50
      },
      {
        "note": 62,
        "time": 4992,
        "velocity": 50
      },
      {
        "note": 66,
        "time": 4992,
        "velocity": 50
      },
      {
        "note": 81,
        "time": 5376,
        "velocity": 50
      },
      {
        "note": 79,
        "time": 5760,
        "velocity": 50
      },
      {
        "note": 38,
        "time": 5760,
        "velocity": 50
      },
      {
        "note": 78,
        "time": 6144,
        "velocity": 50
      },
      {
        "note": 57,
        "time": 6144,
        "velocity": 50
      },
      {
        "note": 61,
        "time": 6144,
        "velocity": 50
      },
      {
        "note": 66,
        "time": 6144,
        "velocity": 50
      },
      {
        "note": 73,
        "time": 6528,
        "velocity": 50
      },
      {
        "note": 71,
        "time": 6912,
        "velocity": 50
      },
      {
        "note": 43,
        "time": 6912,
        "velocity": 50
      },
      {
        "note": 73,
        "time": 7296,
        "velocity": 50
      },
      {
        "note": 59,
        "time": 7296,
        "velocity": 50
      },
      {
        "note": 62,
        "time": 7296,
        "velocity": 50
      },
      {
        "note": 66,
        "time": 7296,
        "velocity": 50
      },
      {
        "note": 74,
        "time": 7680,
        "velocity": 50
      },
      {
        "note": 69,
        "time": 8064,
        "velocity": 50
      },
      {
        "note": 38,
        "time": 8064,
        "velocity": 50
      },
      {
        "note": 57,
        "time": 8448,
        "velocity": 50
      },
      {
        "note": 61,
        "time": 8448,
        "velocity": 50
      },
      {
        "note": 43,
        "time": 9216,
        "velocity": 50
      },
      {
        "note": 59,
        "time": 9600,
        "velocity": 50
      },
      {
        "note": 62,
        "time": 9600,
        "velocity": 50
      },
      {
        "note": 66,
        "time": 9600,
        "velocity": 50
      },
      {
        "note": 38,
        "time": 10368,
        "velocity": 50
      },
      {
        "note": 57,
        "time": 10752,
        "velocity": 50
      },
      {
        "note": 61,
        "time": 10752,
        "velocity": 50
      },
      {
        "note": 66,
        "time": 10752,
        "velocity": 50
      },
      {
        "note": 43,
        "time": 11520,
        "velocity": 50
      },
      {
        "note": 59,
        "time": 11904,
        "velocity": 50
      },
      {
        "note": 62,
        "time": 11904,
        "velocity": 50
      },
      {
        "note": 66,
        "time": 11904,
        "velocity": 50
      },
      {
        "note": 38,
        "time": 12672,
        "velocity": 50
      },
      {
        "note": 66,
        "time": 13056,
        "velocity": 50
      },
      {
        "note": 57,
        "time": 13056,
        "velocity": 50
      },
      {
        "note": 61,
        "time": 13056,
        "velocity": 50
      },
      {
        "note": 66,
        "time": 13056,
        "velocity": 50
      },
      {
        "note": 43,
        "time": 13824,
        "velocity": 50
      },
      {
        "note": 78,
        "time": 14208,
        "velocity": 50
      },
      {
        "note": 59,
        "time": 14208,
        "velocity": 50
      },
      {
        "note": 62,
        "time": 14208,
        "velocity": 50
      },
      {
        "note": 66,
        "time": 14208,
        "velocity": 50
      },
      {
        "note": 81,
        "time": 14592,
        "velocity": 50
      },
      {
        "note": 79,
        "time": 14976,
        "velocity": 50
      },
      {
        "note": 38,
        "time": 14976,
        "velocity": 50
      },
      {
        "note": 78,
        "time": 15360,
        "velocity": 50
      },
      {
        "note": 57,
        "time": 15360,
        "velocity": 50
      },
      {
        "note": 61,
        "time": 15360,
        "velocity": 50
      },
      {
        "note": 66,
        "time": 15360,
        "velocity": 50
      },
      {
        "note": 73,
        "time": 15744,
        "velocity": 50
      },
      {
        "note": 71,
        "time": 16128,
        "velocity": 50
      },
      {
        "note": 43,
        "time": 16128,
        "velocity": 50
      },
      {
        "note": 73,
        "time": 16512,
        "velocity": 50
      },
      {
        "note": 59,
        "time": 16512,
        "velocity": 50
      },
      {
        "note": 62,
        "time": 16512,
        "velocity": 50
      },
      {
        "note": 66,
        "time": 16512,
        "velocity": 50
      },
      {
        "note": 74,
        "time": 16896,
        "velocity": 50
      },
      {
        "note": 38,
        "time": 17280,
        "velocity": 50
      },
      {
        "note": 69,
        "time": 17280,
        "velocity": 50
      },
      {
        "note": 57,
        "time": 17664,
        "velocity": 50
      },
      {
        "note": 61,
        "time": 17664,
        "velocity": 50
      },
      {
        "note": 66,
        "time": 17664,
        "velocity": 50
      },
      {
        "note": 42,
        "time": 18432,
        "velocity": 50
      },
      {
        "note": 73,
        "time": 18432,
        "velocity": 50
      },
      {
        "note": 57,
        "time": 18816,
        "velocity": 50
      },
      {
        "note": 61,
        "time": 18816,
        "velocity": 50
      },
      {
        "note": 66,
        "time": 18816,
        "velocity": 50
      },
      {
        "note": 35,
        "time": 19584,
        "velocity": 50
      },
      {
        "note": 78,
        "time": 19584,
        "velocity": 50
      },
      {
        "note": 59,
        "time": 19968,
        "velocity": 50
      },
      {
        "note": 62,
        "time": 19968,
        "velocity": 50
      },
      {
        "note": 66,
        "time": 19968,
        "velocity": 50
      },
      {
        "note": 40,
        "time": 20736,
        "velocity": 50
      },
      {
        "note": 64,
        "time": 20736,
        "velocity": 50
      },
      {
        "note": 55,
        "time": 21120,
        "velocity": 50
      },
      {
        "note": 59,
        "time": 21120,
        "velocity": 50
      },
      {
        "note": 40,
        "time": 21888,
        "velocity": 50
      },
      {
        "note": 59,
        "time": 22272,
        "velocity": 50
      },
      {
        "note": 62,
        "time": 22272,
        "velocity": 50
      },
      {
        "note": 67,
        "time": 22272,
        "velocity": 50
      },
      {
        "note": 38,
        "time": 23040,
        "velocity": 50
      },
      {
        "note": 53,
        "time": 23424,
        "velocity": 50
      },
      {
        "note": 57,
        "time": 23424,
        "velocity": 50
      },
      {
        "note": 62,
        "time": 23424,
        "velocity": 50
      },
      {
        "note": 69,
        "time": 24192,
        "velocity": 50
      },
      {
        "note": 33,
        "time": 24192,
        "velocity": 50
      },
      {
        "note": 71,
        "time": 24576,
        "velocity": 50
      },
      {
        "note": 57,
        "time": 24576,
        "velocity": 50
      },
      {
        "note": 60,
        "time": 24576,
        "velocity": 50
      },
      {
        "note": 64,
        "time": 24576,
        "velocity": 50
      },
      {
        "note": 72,
        "time": 24960,
        "velocity": 50
      },
      {
        "note": 76,
        "time": 25344,
        "velocity": 50
      },
      {
        "note": 38,
        "time": 25344,
        "velocity": 50
      },
      {
        "note": 74,
        "time": 25728,
        "velocity": 50
      },
      {
        "note": 55,
        "time": 25728,
        "velocity": 50
      },
      {
        "note": 59,
        "time": 25728,
        "velocity": 50
      },
      {
        "note": 64,
        "time": 25728,
        "velocity": 50
      },
      {
        "note": 71,
        "time": 26112,
        "velocity": 50
      },
      {
        "note": 74,
        "time": 26496,
        "velocity": 50
      },
      {
        "note": 38,
        "time": 26496,
        "velocity": 50
      },
      {
        "note": 72,
        "time": 26880,
        "velocity": 50
      },
      {
        "note": 50,
        "time": 26880,
        "velocity": 50
      },
      {
        "note": 55,
        "time": 26880,
        "velocity": 50
      },
      {
        "note": 59,
        "time": 26880,
        "velocity": 50
      },
      {
        "note": 64,
        "time": 26880,
        "velocity": 50
      },
      {
        "note": 71,
        "time": 27264,
        "velocity": 50
      },
      {
        "note": 38,
        "time": 27648,
        "velocity": 50
      },
      {
        "note": 74,
        "time": 27648,
        "velocity": 50
      },
      {
        "note": 48,
        "time": 28032,
        "velocity": 50
      },
      {
        "note": 52,
        "time": 28032,
        "velocity": 50
      },
      {
        "note": 57,
        "time": 28032,
        "velocity": 50
      },
      {
        "note": 62,
        "time": 28032,
        "velocity": 50
      },
      {
        "note": 38,
        "time": 28800,
        "velocity": 50
      },
      {
        "note": 48,
        "time": 29184,
        "velocity": 50
      },
      {
        "note": 54,
        "time": 29184,
        "velocity": 50
      },
      {
        "note": 57,
        "time": 29184,
        "velocity": 50
      },
      {
        "note": 62,
        "time": 29184,
        "velocity": 50
      },
      {
        "note": 74,
        "time": 29568,
        "velocity": 50
      },
      {
        "note": 76,
        "time": 29952,
        "velocity": 50
      },
      {
        "note": 38,
        "time": 29952,
        "velocity": 50
      },
      {
        "note": 77,
        "time": 30336,
        "velocity": 50
      },
      {
        "note": 57,
        "time": 30336,
        "velocity": 50
      },
      {
        "note": 60,
        "time": 30336,
        "velocity": 50
      },
      {
        "note": 65,
        "time": 30336,
        "velocity": 50
      },
      {
        "note": 79,
        "time": 30720,
        "velocity": 50
      },
      {
        "note": 81,
        "time": 31104,
        "velocity": 50
      },
      {
        "note": 38,
        "time": 31104,
        "velocity": 50
      },
      {
        "note": 72,
        "time": 31488,
        "velocity": 50
      },
      {
        "note": 57,
        "time": 31488,
        "velocity": 50
      },
      {
        "note": 60,
        "time": 31488,
        "velocity": 50
      },
      {
        "note": 64,
        "time": 31488,
        "velocity": 50
      },
      {
        "note": 74,
        "time": 31872,
        "velocity": 50
      },
      {
        "note": 76,
        "time": 32256,
        "velocity": 50
      },
      {
        "note": 38,
        "time": 32256,
        "velocity": 50
      },
      {
        "note": 74,
        "time": 32640,
        "velocity": 50
      },
      {
        "note": 50,
        "time": 32640,
        "velocity": 50
      },
      {
        "note": 55,
        "time": 32640,
        "velocity": 50
      },
      {
        "note": 59,
        "time": 32640,
        "velocity": 50
      },
      {
        "note": 64,
        "time": 32640,
        "velocity": 50
      },
      {
        "note": 71,
        "time": 33024,
        "velocity": 50
      },
      {
        "note": 38,
        "time": 33408,
        "velocity": 50
      },
      {
        "note": 74,
        "time": 33408,
        "velocity": 50
      },
      {
        "note": 48,
        "time": 33792,
        "velocity": 50
      },
      {
        "note": 52,
        "time": 33792,
        "velocity": 50
      },
      {
        "note": 57,
        "time": 33792,
        "velocity": 50
      },
      {
        "note": 62,
        "time": 33792,
        "velocity": 50
      },
      {
        "note": 38,
        "time": 34560,
        "velocity": 50
      },
      {
        "note": 48,
        "time": 34944,
        "velocity": 50
      },
      {
        "note": 54,
        "time": 34944,
        "velocity": 50
      },
      {
        "note": 57,
        "time": 34944,
        "velocity": 50
      },
      {
        "note": 62,
        "time": 34944,
        "velocity": 50
      },
      {
        "note": 74,
        "time": 35328,
        "velocity": 50
      },
      {
        "note": 40,
        "time": 35712,
        "velocity": 50
      },
      {
        "note": 79,
        "time": 35712,
        "velocity": 50
      },
      {
        "note": 59,
        "time": 36096,
        "velocity": 50
      },
      {
        "note": 64,
        "time": 36096,
        "velocity": 50
      },
      {
        "note": 67,
        "time": 36096,
        "velocity": 50
      },
      {
        "note": 42,
        "time": 36864,
        "velocity": 50
      },
      {
        "note": 78,
        "time": 36864,
        "velocity": 50
      },
      {
        "note": 57,
        "time": 37248,
        "velocity": 50
      },
      {
        "note": 61,
        "time": 37248,
        "velocity": 50
      },
      {
        "note": 66,
        "time": 37248,
        "velocity": 50
      },
      {
        "note": 71,
        "time": 38016,
        "velocity": 50
      },
      {
        "note": 35,
        "time": 38016,
        "velocity": 50
      },
      {
        "note": 69,
        "time": 38400,
        "velocity": 50
      },
      {
        "note": 59,
        "time": 38400,
        "velocity": 50
      },
      {
        "note": 62,
        "time": 38400,
        "velocity": 50
      },
      {
        "note": 66,
        "time": 38400,
        "velocity": 50
      },
      {
        "note": 71,
        "time": 38784,
        "velocity": 50
      },
      {
        "note": 73,
        "time": 39168,
        "velocity": 50
      },
      {
        "note": 40,
        "time": 39168,
        "velocity": 50
      },
      {
        "note": 74,
        "time": 39552,
        "velocity": 50
      },
      {
        "note": 61,
        "time": 39552,
        "velocity": 50
      },
      {
        "note": 64,
        "time": 39552,
        "velocity": 50
      },
      {
        "note": 69,
        "time": 39552,
        "velocity": 50
      },
      {
        "note": 76,
        "time": 39936,
        "velocity": 50
      },
      {
        "note": 73,
        "time": 40320,
        "velocity": 50
      },
      {
        "note": 40,
        "time": 40320,
        "velocity": 50
      },
      {
        "note": 74,
        "time": 40704,
        "velocity": 50
      },
      {
        "note": 57,
        "time": 40704,
        "velocity": 50
      },
      {
        "note": 61,
        "time": 40704,
        "velocity": 50
      },
      {
        "note": 69,
        "time": 40704,
        "velocity": 50
      },
      {
        "note": 76,
        "time": 41088,
        "velocity": 50
      },
      {
        "note": 66,
        "time": 41472,
        "velocity": 50
      },
      {
        "note": 40,
        "time": 41472,
        "velocity": 50
      },
      {
        "note": 47,
        "time": 41856,
        "velocity": 50
      },
      {
        "note": 57,
        "time": 41856,
        "velocity": 50
      },
      {
        "note": 62,
        "time": 41856,
        "velocity": 50
      },
      {
        "note": 52,
        "time": 42240,
        "velocity": 50
      },
      {
        "note": 59,
        "time": 42240,
        "velocity": 50
      },
      {
        "note": 62,
        "time": 42240,
        "velocity": 50
      },
      {
        "note": 67,
        "time": 42240,
        "velocity": 50
      },
      {
        "note": 72,
        "time": 42624,
        "velocity": 50
      },
      {
        "note": 60,
        "time": 42624,
        "velocity": 50
      },
      {
        "note": 64,
        "time": 42624,
        "velocity": 50
      },
      {
        "note": 69,
        "time": 42624,
        "velocity": 50
      },
      {
        "note": 45,
        "time": 42624,
        "velocity": 50
      },
      {
        "note": 55,
        "time": 42624,
        "velocity": 50
      },
      {
        "note": 74,
        "time": 43776,
        "velocity": 50
      },
      {
        "note": 62,
        "time": 43776,
        "velocity": 50
      },
      {
        "note": 66,
        "time": 43776,
        "velocity": 50
      },
      {
        "note": 69,
        "time": 43776,
        "velocity": 50
      },
      {
        "note": 38,
        "time": 43776,
        "velocity": 50
      },
      {
        "note": 45,
        "time": 43776,
        "velocity": 50
      },
      {
        "note": 50,
        "time": 43776,
        "velocity": 50
      },
      {
        "note": 43,
        "time": 44928,
        "velocity": 50
      },
      {
        "note": 59,
        "time": 45312,
        "velocity": 50
      },
      {
        "note": 62,
        "time": 45312,
        "velocity": 50
      },
      {
        "note": 66,
        "time": 45312,
        "velocity": 50
      },
      {
        "note": 38,
        "time": 46080,
        "velocity": 50
      },
      {
        "note": 57,
        "time": 46464,
        "velocity": 50
      },
      {
        "note": 61,
        "time": 46464,
        "velocity": 50
      },
      {
        "note": 66,
        "time": 46464,
        "velocity": 50
      },
      {
        "note": 43,
        "time": 47232,
        "velocity": 50
      },
      {
        "note": 59,
        "time": 47616,
        "velocity": 50
      },
      {
        "note": 62,
        "time": 47616,
        "velocity": 50
      },
      {
        "note": 66,
        "time": 47616,
        "velocity": 50
      },
      {
        "note": 38,
        "time": 48384,
        "velocity": 50
      },
      {
        "note": 57,
        "time": 48768,
        "velocity": 50
      },
      {
        "note": 61,
        "time": 48768,
        "velocity": 50
      },
      {
        "note": 66,
        "time": 48768,
        "velocity": 50
      },
      {
        "note": 43,
        "time": 49536,
        "velocity": 50
      },
      {
        "note": 78,
        "time": 49920,
        "velocity": 50
      },
      {
        "note": 59,
        "time": 49920,
        "velocity": 50
      },
      {
        "note": 62,
        "time": 49920,
        "velocity": 50
      },
      {
        "note": 66,
        "time": 49920,
        "velocity": 50
      },
      {
        "note": 81,
        "time": 50304,
        "velocity": 50
      },
      {
        "note": 79,
        "time": 50688,
        "velocity": 50
      },
      {
        "note": 38,
        "time": 50688,
        "velocity": 50
      },
      {
        "note": 78,
        "time": 51072,
        "velocity": 50
      },
      {
        "note": 57,
        "time": 51072,
        "velocity": 50
      },
      {
        "note": 61,
        "time": 51072,
        "velocity": 50
      },
      {
        "note": 66,
        "time": 51072,
        "velocity": 50
      },
      {
        "note": 73,
        "time": 51456,
        "velocity": 50
      },
      {
        "note": 71,
        "time": 51840,
        "velocity": 50
      },
      {
        "note": 43,
        "time": 51840,
        "velocity": 50
      },
      {
        "note": 73,
        "time": 52224,
        "velocity": 50
      },
      {
        "note": 59,
        "time": 52224,
        "velocity": 50
      },
      {
        "note": 62,
        "time": 52224,
        "velocity": 50
      },
      {
        "note": 66,
        "time": 52224,
        "velocity": 50
      },
      {
        "note": 74,
        "time": 52608,
        "velocity": 50
      },
      {
        "note": 69,
        "time": 52992,
        "velocity": 50
      },
      {
        "note": 38,
        "time": 52992,
        "velocity": 50
      },
      {
        "note": 57,
        "time": 53376,
        "velocity": 50
      },
      {
        "note": 61,
        "time": 53376,
        "velocity": 50
      },
      {
        "note": 43,
        "time": 54144,
        "velocity": 50
      },
      {
        "note": 59,
        "time": 54528,
        "velocity": 50
      },
      {
        "note": 62,
        "time": 54528,
        "velocity": 50
      },
      {
        "note": 66,
        "time": 54528,
        "velocity": 50
      },
      {
        "note": 38,
        "time": 55296,
        "velocity": 50
      },
      {
        "note": 57,
        "time": 55680,
        "velocity": 50
      },
      {
        "note": 61,
        "time": 55680,
        "velocity": 50
      },
      {
        "note": 66,
        "time": 55680,
        "velocity": 50
      },
      {
        "note": 43,
        "time": 56448,
        "velocity": 50
      },
      {
        "note": 59,
        "time": 56832,
        "velocity": 50
      },
      {
        "note": 62,
        "time": 56832,
        "velocity": 50
      },
      {
        "note": 66,
        "time": 56832,
        "velocity": 50
      },
      {
        "note": 38,
        "time": 57600,
        "velocity": 50
      },
      {
        "note": 66,
        "time": 57984,
        "velocity": 50
      },
      {
        "note": 57,
        "time": 57984,
        "velocity": 50
      },
      {
        "note": 61,
        "time": 57984,
        "velocity": 50
      },
      {
        "note": 66,
        "time": 57984,
        "velocity": 50
      },
      {
        "note": 43,
        "time": 58752,
        "velocity": 50
      },
      {
        "note": 78,
        "time": 59136,
        "velocity": 50
      },
      {
        "note": 59,
        "time": 59136,
        "velocity": 50
      },
      {
        "note": 62,
        "time": 59136,
        "velocity": 50
      },
      {
        "note": 66,
        "time": 59136,
        "velocity": 50
      },
      {
        "note": 81,
        "time": 59520,
        "velocity": 50
      },
      {
        "note": 79,
        "time": 59904,
        "velocity": 50
      },
      {
        "note": 38,
        "time": 59904,
        "velocity": 50
      },
      {
        "note": 78,
        "time": 60288,
        "velocity": 50
      },
      {
        "note": 57,
        "time": 60288,
        "velocity": 50
      },
      {
        "note": 61,
        "time": 60288,
        "velocity": 50
      },
      {
        "note": 66,
        "time": 60288,
        "velocity": 50
      },
      {
        "note": 73,
        "time": 60672,
        "velocity": 50
      },
      {
        "note": 71,
        "time": 61056,
        "velocity": 50
      },
      {
        "note": 43,
        "time": 61056,
        "velocity": 50
      },
      {
        "note": 73,
        "time": 61440,
        "velocity": 50
      },
      {
        "note": 59,
        "time": 61440,
        "velocity": 50
      },
      {
        "note": 62,
        "time": 61440,
        "velocity": 50
      },
      {
        "note": 66,
        "time": 61440,
        "velocity": 50
      },
      {
        "note": 74,
        "time": 61824,
        "velocity": 50
      },
      {
        "note": 38,
        "time": 62208,
        "velocity": 50
      },
      {
        "note": 69,
        "time": 62208,
        "velocity": 50
      },
      {
        "note": 57,
        "time": 62592,
        "velocity": 50
      },
      {
        "note": 61,
        "time": 62592,
        "velocity": 50
      },
      {
        "note": 66,
        "time": 62592,
        "velocity": 50
      },
      {
        "note": 42,
        "time": 63360,
        "velocity": 50
      },
      {
        "note": 73,
        "time": 63360,
        "velocity": 50
      },
      {
        "note": 57,
        "time": 63744,
        "velocity": 50
      },
      {
        "note": 61,
        "time": 63744,
        "velocity": 50
      },
      {
        "note": 66,
        "time": 63744,
        "velocity": 50
      },
      {
        "note": 35,
        "time": 64512,
        "velocity": 50
      },
      {
        "note": 78,
        "time": 64512,
        "velocity": 50
      },
      {
        "note": 59,
        "time": 64896,
        "velocity": 50
      },
      {
        "note": 62,
        "time": 64896,
        "velocity": 50
      },
      {
        "note": 66,
        "time": 64896,
        "velocity": 50
      },
      {
        "note": 40,
        "time": 65664,
        "velocity": 50
      },
      {
        "note": 64,
        "time": 65664,
        "velocity": 50
      },
      {
        "note": 55,
        "time": 66048,
        "velocity": 50
      },
      {
        "note": 59,
        "time": 66048,
        "velocity": 50
      },
      {
        "note": 40,
        "time": 66816,
        "velocity": 50
      },
      {
        "note": 59,
        "time": 67200,
        "velocity": 50
      },
      {
        "note": 62,
        "time": 67200,
        "velocity": 50
      },
      {
        "note": 67,
        "time": 67200,
        "velocity": 50
      },
      {
        "note": 38,
        "time": 67968,
        "velocity": 50
      },
      {
        "note": 53,
        "time": 68352,
        "velocity": 50
      },
      {
        "note": 57,
        "time": 68352,
        "velocity": 50
      },
      {
        "note": 62,
        "time": 68352,
        "velocity": 50
      },
      {
        "note": 69,
        "time": 69120,
        "velocity": 50
      },
      {
        "note": 33,
        "time": 69120,
        "velocity": 50
      },
      {
        "note": 71,
        "time": 69504,
        "velocity": 50
      },
      {
        "note": 57,
        "time": 69504,
        "velocity": 50
      },
      {
        "note": 60,
        "time": 69504,
        "velocity": 50
      },
      {
        "note": 64,
        "time": 69504,
        "velocity": 50
      },
      {
        "note": 72,
        "time": 69888,
        "velocity": 50
      },
      {
        "note": 76,
        "time": 70272,
        "velocity": 50
      },
      {
        "note": 38,
        "time": 70272,
        "velocity": 50
      },
      {
        "note": 74,
        "time": 70656,
        "velocity": 50
      },
      {
        "note": 55,
        "time": 70656,
        "velocity": 50
      },
      {
        "note": 59,
        "time": 70656,
        "velocity": 50
      },
      {
        "note": 64,
        "time": 70656,
        "velocity": 50
      },
      {
        "note": 71,
        "time": 71040,
        "velocity": 50
      },
      {
        "note": 74,
        "time": 71424,
        "velocity": 50
      },
      {
        "note": 38,
        "time": 71424,
        "velocity": 50
      },
      {
        "note": 72,
        "time": 71808,
        "velocity": 50
      },
      {
        "note": 50,
        "time": 71808,
        "velocity": 50
      },
      {
        "note": 55,
        "time": 71808,
        "velocity": 50
      },
      {
        "note": 59,
        "time": 71808,
        "velocity": 50
      },
      {
        "note": 64,
        "time": 71808,
        "velocity": 50
      },
      {
        "note": 71,
        "time": 72192,
        "velocity": 50
      },
      {
        "note": 38,
        "time": 72576,
        "velocity": 50
      },
      {
        "note": 74,
        "time": 72576,
        "velocity": 50
      },
      {
        "note": 48,
        "time": 72960,
        "velocity": 50
      },
      {
        "note": 52,
        "time": 72960,
        "velocity": 50
      },
      {
        "note": 57,
        "time": 72960,
        "velocity": 50
      },
      {
        "note": 62,
        "time": 72960,
        "velocity": 50
      },
      {
        "note": 38,
        "time": 73728,
        "velocity": 50
      },
      {
        "note": 48,
        "time": 74112,
        "velocity": 50
      },
      {
        "note": 54,
        "time": 74112,
        "velocity": 50
      },
      {
        "note": 57,
        "time": 74112,
        "velocity": 50
      },
      {
        "note": 62,
        "time": 74112,
        "velocity": 50
      },
      {
        "note": 74,
        "time": 74496,
        "velocity": 50
      },
      {
        "note": 76,
        "time": 74880,
        "velocity": 50
      },
      {
        "note": 38,
        "time": 74880,
        "velocity": 50
      },
      {
        "note": 77,
        "time": 75264,
        "velocity": 50
      },
      {
        "note": 57,
        "time": 75264,
        "velocity": 50
      },
      {
        "note": 60,
        "time": 75264,
        "velocity": 50
      },
      {
        "note": 65,
        "time": 75264,
        "velocity": 50
      },
      {
        "note": 79,
        "time": 75648,
        "velocity": 50
      },
      {
        "note": 81,
        "time": 76032,
        "velocity": 50
      },
      {
        "note": 38,
        "time": 76032,
        "velocity": 50
      },
      {
        "note": 72,
        "time": 76416,
        "velocity": 50
      },
      {
        "note": 57,
        "time": 76416,
        "velocity": 50
      },
      {
        "note": 60,
        "time": 76416,
        "velocity": 50
      },
      {
        "note": 64,
        "time": 76416,
        "velocity": 50
      },
      {
        "note": 74,
        "time": 76800,
        "velocity": 50
      },
      {
        "note": 76,
        "time": 77184,
        "velocity": 50
      },
      {
        "note": 38,
        "time": 77184,
        "velocity": 50
      },
      {
        "note": 74,
        "time": 77568,
        "velocity": 50
      },
      {
        "note": 50,
        "time": 77568,
        "velocity": 50
      },
      {
        "note": 55,
        "time": 77568,
        "velocity": 50
      },
      {
        "note": 59,
        "time": 77568,
        "velocity": 50
      },
      {
        "note": 64,
        "time": 77568,
        "velocity": 50
      },
      {
        "note": 71,
        "time": 77952,
        "velocity": 50
      },
      {
        "note": 38,
        "time": 78336,
        "velocity": 50
      },
      {
        "note": 74,
        "time": 78336,
        "velocity": 50
      },
      {
        "note": 48,
        "time": 78720,
        "velocity": 50
      },
      {
        "note": 52,
        "time": 78720,
        "velocity": 50
      },
      {
        "note": 57,
        "time": 78720,
        "velocity": 50
      },
      {
        "note": 62,
        "time": 78720,
        "velocity": 50
      },
      {
        "note": 38,
        "time": 79488,
        "velocity": 50
      },
      {
        "note": 48,
        "time": 79872,
        "velocity": 50
      },
      {
        "note": 54,
        "time": 79872,
        "velocity": 50
      },
      {
        "note": 57,
        "time": 79872,
        "velocity": 50
      },
      {
        "note": 62,
        "time": 79872,
        "velocity": 50
      },
      {
        "note": 74,
        "time": 80256,
        "velocity": 50
      },
      {
        "note": 40,
        "time": 80640,
        "velocity": 50
      },
      {
        "note": 79,
        "time": 80640,
        "velocity": 50
      },
      {
        "note": 59,
        "time": 81024,
        "velocity": 50
      },
      {
        "note": 64,
        "time": 81024,
        "velocity": 50
      },
      {
        "note": 67,
        "time": 81024,
        "velocity": 50
      },
      {
        "note": 40,
        "time": 81792,
        "velocity": 50
      },
      {
        "note": 77,
        "time": 81792,
        "velocity": 50
      },
      {
        "note": 57,
        "time": 82176,
        "velocity": 50
      },
      {
        "note": 62,
        "time": 82176,
        "velocity": 50
      },
      {
        "note": 65,
        "time": 82176,
        "velocity": 50
      },
      {
        "note": 69,
        "time": 82176,
        "velocity": 50
      },
      {
        "note": 71,
        "time": 82944,
        "velocity": 50
      },
      {
        "note": 40,
        "time": 82944,
        "velocity": 50
      },
      {
        "note": 72,
        "time": 83328,
        "velocity": 50
      },
      {
        "note": 57,
        "time": 83328,
        "velocity": 50
      },
      {
        "note": 60,
        "time": 83328,
        "velocity": 50
      },
      {
        "note": 65,
        "time": 83328,
        "velocity": 50
      },
      {
        "note": 77,
        "time": 83712,
        "velocity": 50
      },
      {
        "note": 76,
        "time": 84096,
        "velocity": 50
      },
      {
        "note": 40,
        "time": 84096,
        "velocity": 50
      },
      {
        "note": 74,
        "time": 84480,
        "velocity": 50
      },
      {
        "note": 60,
        "time": 84480,
        "velocity": 50
      },
      {
        "note": 64,
        "time": 84480,
        "velocity": 50
      },
      {
        "note": 69,
        "time": 84480,
        "velocity": 50
      },
      {
        "note": 72,
        "time": 84864,
        "velocity": 50
      },
      {
        "note": 76,
        "time": 85248,
        "velocity": 50
      },
      {
        "note": 40,
        "time": 85248,
        "velocity": 50
      },
      {
        "note": 74,
        "time": 85632,
        "velocity": 50
      },
      {
        "note": 57,
        "time": 85632,
        "velocity": 50
      },
      {
        "note": 60,
        "time": 85632,
        "velocity": 50
      },
      {
        "note": 69,
        "time": 85632,
        "velocity": 50
      },
      {
        "note": 72,
        "time": 86016,
        "velocity": 50
      },
      {
        "note": 65,
        "time": 86400,
        "velocity": 50
      },
      {
        "note": 40,
        "time": 86400,
        "velocity": 50
      },
      {
        "note": 62,
        "time": 86784,
        "velocity": 50
      },
      {
        "note": 47,
        "time": 86784,
        "velocity": 50
      },
      {
        "note": 57,
        "time": 86784,
        "velocity": 50
      },
      {
        "note": 52,
        "time": 87168,
        "velocity": 50
      },
      {
        "note": 59,
        "time": 87168,
        "velocity": 50
      },
      {
        "note": 62,
        "time": 87168,
        "velocity": 50
      },
      {
        "note": 67,
        "time": 87168,
        "velocity": 50
      },
      {
        "note": 72,
        "time": 87552,
        "velocity": 50
      },
      {
        "note": 60,
        "time": 87552,
        "velocity": 50
      },
      {
        "note": 64,
        "time": 87552,
        "velocity": 50
      },
      {
        "note": 69,
        "time": 87552,
        "velocity": 50
      },
      {
        "note": 45,
        "time": 87552,
        "velocity": 50
      },
      {
        "note": 55,
        "time": 87552,
        "velocity": 50
      },
      {
        "note": 74,
        "time": 88704,
        "velocity": 50
      },
      {
        "note": 62,
        "time": 88704,
        "velocity": 50
      },
      {
        "note": 65,
        "time": 88704,
        "velocity": 50
      },
      {
        "note": 69,
        "time": 88704,
        "velocity": 50
      },
      {
        "note": 38,
        "time": 88704,
        "velocity": 50
      },
      {
        "note": 45,
        "time": 88704,
        "velocity": 50
      },
      {
        "note": 50,
        "time": 88704,
        "velocity": 50
      }
    ]
  }
]